<svg width="11" height="21" viewBox="0 0 11 21" fill="none" xmlns="http://www.w3.org/2000/svg">
<path d="M9.67658 20.4188C9.38126 20.4188 9.14923 20.1867 9.14923 19.8914V7.36172C9.14923 7.06641 9.38126 6.83438 9.67658 6.83438C9.97189 6.83438 10.2039 7.06641 10.2039 7.36172V19.8914C10.225 20.1867 9.97189 20.4188 9.67658 20.4188ZM1.36564 20.4188C1.07033 20.4188 0.838294 20.1867 0.838294 19.8914V7.36172C0.838294 7.06641 1.07033 6.83438 1.36564 6.83438C1.66095 6.83438 1.89298 7.06641 1.89298 7.36172V19.8914C1.91408 20.1867 1.66095 20.4188 1.36564 20.4188ZM5.52111 20.4188C5.22579 20.4188 4.99376 20.1867 4.99376 19.8914V7.36172C4.99376 7.06641 5.22579 6.83438 5.52111 6.83438C5.81642 6.83438 6.04845 7.06641 6.04845 7.36172V19.8914C6.06954 20.1867 5.81642 20.4188 5.52111 20.4188ZM8.95939 3.18516V1.89844C8.95939 1.43438 8.5797 1.05469 8.11564 1.05469H2.71564C2.23048 1.05469 1.87189 1.43438 1.87189 1.91953V3.0375H0.8172V1.91953C0.8172 0.864844 1.68204 0 2.73673 0H8.13673C9.19142 0 10.0563 0.864844 10.0563 1.91953V3.20625H8.95939V3.18516Z" fill="black"/>
</svg>
