<svg width="27" height="27" viewBox="0 0 27 27" fill="none" xmlns="http://www.w3.org/2000/svg">
<path d="M13.2075 19.9688H19.8675C19.7662 20.0588 19.665 20.1375 19.5637 20.2275L14.76 23.8275C13.1737 25.0088 10.5862 25.0088 8.98875 23.8275L4.17375 20.2275C3.11625 19.44 2.25 17.6963 2.25 16.38V8.04378C2.25 6.67128 3.29625 5.15253 4.57875 4.66878L10.1813 2.56503C11.1038 2.21628 12.6338 2.21628 13.5563 2.56503L19.1475 4.66878C20.2163 5.07378 21.1275 6.19878 21.4088 7.34628H13.1962C12.9487 7.34628 12.7237 7.35753 12.51 7.35753C10.4287 7.48128 9.88875 8.23503 9.88875 10.6088V16.7175C9.9 19.305 10.5637 19.9688 13.2075 19.9688V19.9688Z" stroke="black" stroke-width="1.5" stroke-linecap="round" stroke-linejoin="round"/>
<path d="M9.89999 12.6226H24.75" stroke="black" stroke-width="1.5" stroke-miterlimit="10" stroke-linecap="round" stroke-linejoin="round"/>
<path d="M24.75 10.5975V16.8412C24.7275 19.3387 24.0412 19.9575 21.4425 19.9575H13.2075C10.5637 19.9575 9.89999 19.2937 9.89999 16.695V10.5862C9.89999 8.22373 10.44 7.46998 12.5212 7.33498C12.735 7.33498 12.96 7.32373 13.2075 7.32373H21.4425C24.0862 7.33498 24.75 7.98748 24.75 10.5975Z" stroke="black" stroke-width="1.5" stroke-linecap="round" stroke-linejoin="round"/>
<path d="M12.735 17.1675H14.2312M16.5937 17.1675H20.2725" stroke="black" stroke-width="1.5" stroke-miterlimit="10" stroke-linecap="round" stroke-linejoin="round"/>
</svg>
