<svg width="27" height="27" viewBox="0 0 27 27" fill="none" xmlns="http://www.w3.org/2000/svg">
<path d="M12.375 2.25H10.125C4.5 2.25 2.25 4.5 2.25 10.125V16.875C2.25 22.5 4.5 24.75 10.125 24.75H16.875C22.5 24.75 24.75 22.5 24.75 16.875V14.625" stroke="black" stroke-width="1.5" stroke-linecap="round" stroke-linejoin="round"/>
<path d="M18.045 3.39742L9.17999 12.2624C8.84249 12.5999 8.50499 13.2637 8.43749 13.7474L7.95374 17.1337C7.77374 18.3599 8.63999 19.2149 9.86624 19.0462L13.2525 18.5624C13.725 18.4949 14.3887 18.1574 14.7375 17.8199L23.6025 8.95492C25.1325 7.42492 25.8525 5.64742 23.6025 3.39742C21.3525 1.14742 19.575 1.86742 18.045 3.39742V3.39742Z" stroke="black" stroke-width="1.5" stroke-miterlimit="10" stroke-linecap="round" stroke-linejoin="round"/>
<path d="M16.7737 4.66895C17.1468 5.9936 17.8537 7.20027 18.8268 8.17337C19.7999 9.14647 21.0066 9.85341 22.3312 10.2264" stroke="black" stroke-width="1.5" stroke-miterlimit="10" stroke-linecap="round" stroke-linejoin="round"/>
</svg>
