<svg width="27" height="27" viewBox="0 0 27 27" fill="none" xmlns="http://www.w3.org/2000/svg">
<path d="M13.5 16.875C14.3951 16.875 15.2536 16.5194 15.8865 15.8865C16.5194 15.2536 16.875 14.3951 16.875 13.5C16.875 12.6049 16.5194 11.7464 15.8865 11.1135C15.2536 10.4806 14.3951 10.125 13.5 10.125C12.6049 10.125 11.7464 10.4806 11.1135 11.1135C10.4806 11.7464 10.125 12.6049 10.125 13.5C10.125 14.3951 10.4806 15.2536 11.1135 15.8865C11.7464 16.5194 12.6049 16.875 13.5 16.875V16.875Z" stroke="black" stroke-width="1.5" stroke-miterlimit="10" stroke-linecap="round" stroke-linejoin="round"/>
<path d="M2.25 14.4901V12.5101C2.25 11.3401 3.20625 10.3726 4.3875 10.3726C6.42375 10.3726 7.25625 8.93261 6.2325 7.16636C5.6475 6.15386 5.99625 4.83761 7.02 4.25261L8.96625 3.13886C9.855 2.61011 11.0025 2.92511 11.5312 3.81386L11.655 4.02761C12.6675 5.79386 14.3325 5.79386 15.3562 4.02761L15.48 3.81386C16.0088 2.92511 17.1563 2.61011 18.045 3.13886L19.9913 4.25261C21.015 4.83761 21.3637 6.15386 20.7787 7.16636C19.755 8.93261 20.5875 10.3726 22.6238 10.3726C23.7938 10.3726 24.7613 11.3289 24.7613 12.5101V14.4901C24.7613 15.6601 23.805 16.6276 22.6238 16.6276C20.5875 16.6276 19.755 18.0676 20.7787 19.8339C21.3637 20.8576 21.015 22.1626 19.9913 22.7476L18.045 23.8614C17.1563 24.3901 16.0088 24.0751 15.48 23.1864L15.3562 22.9726C14.3437 21.2064 12.6787 21.2064 11.655 22.9726L11.5312 23.1864C11.0025 24.0751 9.855 24.3901 8.96625 23.8614L7.02 22.7476C6.52961 22.4653 6.17128 21.9999 6.02364 21.4536C5.876 20.9073 5.95111 20.3248 6.2325 19.8339C7.25625 18.0676 6.42375 16.6276 4.3875 16.6276C3.20625 16.6276 2.25 15.6601 2.25 14.4901V14.4901Z" stroke="black" stroke-width="1.5" stroke-miterlimit="10" stroke-linecap="round" stroke-linejoin="round"/>
</svg>
