
<svg width="54" height="54" viewBox="0 0 54 54" fill="none" xmlns="http://www.w3.org/2000/svg">
<path d="M40.625 53.875C37.8 53.875 34.825 53.2 31.75 51.9C28.75 50.625 25.725 48.875 22.775 46.75C19.85 44.6 17.025 42.2 14.35 39.575C11.7 36.9 9.3 34.075 7.175 31.175C5.025 28.175 3.3 25.175 2.075 22.275C0.775 19.175 0.125 16.175 0.125 13.35C0.125 11.4 0.475 9.55 1.15 7.825C1.85 6.05 2.975 4.4 4.5 2.975C6.425 1.075 8.625 0.125 10.975 0.125C11.95 0.125 12.95 0.35 13.8 0.75C14.775 1.2 15.6 1.875 16.2 2.775L22 10.95C22.525 11.675 22.925 12.375 23.2 13.075C23.525 13.825 23.7 14.575 23.7 15.3C23.7 16.25 23.425 17.175 22.9 18.05C22.4405 18.8309 21.877 19.5458 21.225 20.175L19.525 21.95C19.55 22.025 19.575 22.075 19.6 22.125C19.9 22.65 20.5 23.55 21.65 24.9C22.875 26.3 24.025 27.575 25.175 28.75C26.65 30.2 27.875 31.35 29.025 32.3C30.45 33.5 31.375 34.1 31.925 34.375L31.875 34.5L33.7 32.7C34.475 31.925 35.225 31.35 35.95 30.975C37.325 30.125 39.075 29.975 40.825 30.7C41.475 30.975 42.175 31.35 42.925 31.875L51.225 37.775C52.15 38.4 52.825 39.2 53.225 40.15C53.6 41.1 53.775 41.975 53.775 42.85C53.775 44.05 53.5 45.25 52.975 46.375C52.45 47.5 51.8 48.475 50.975 49.375C49.55 50.95 48 52.075 46.2 52.8C44.475 53.5 42.6 53.875 40.625 53.875ZM10.975 3.875C9.6 3.875 8.325 4.475 7.1 5.675C5.95 6.75 5.15 7.925 4.65 9.2C4.125 10.5 3.875 11.875 3.875 13.35C3.875 15.675 4.425 18.2 5.525 20.8C6.65 23.45 8.225 26.2 10.225 28.95C12.225 31.7 14.5 34.375 17 36.9C19.5 39.375 22.2 41.675 24.975 43.7C27.675 45.675 30.45 47.275 33.2 48.425C37.475 50.25 41.475 50.675 44.775 49.3C46.05 48.775 47.175 47.975 48.2 46.825C48.775 46.2 49.225 45.525 49.6 44.725C49.9 44.1 50.05 43.45 50.05 42.8C50.05 42.4 49.975 42 49.775 41.55C49.6152 41.2403 49.3729 40.9808 49.075 40.8L40.775 34.9C40.275 34.55 39.825 34.3 39.4 34.125C38.85 33.9 38.625 33.675 37.775 34.2C37.275 34.45 36.825 34.825 36.325 35.325L34.425 37.2C33.45 38.15 31.95 38.375 30.8 37.95L30.125 37.65C29.1 37.1 27.9 36.25 26.575 35.125C25.375 34.1 24.075 32.9 22.5 31.35C21.275 30.1 20.05 28.775 18.775 27.3C17.6 25.925 16.75 24.75 16.225 23.775L15.925 23.025C15.775 22.45 15.725 22.125 15.725 21.775C15.725 20.875 16.05 20.075 16.675 19.45L18.55 17.5C19.05 17 19.425 16.525 19.675 16.1C19.875 15.775 19.95 15.5 19.95 15.25C19.95 15.05 19.875 14.75 19.75 14.45C19.575 14.05 19.3 13.6 18.95 13.125L13.15 4.925C12.916 4.58911 12.5967 4.3216 12.225 4.15C11.825 3.975 11.4 3.875 10.975 3.875ZM31.875 34.525L31.475 36.225L32.15 34.475C32.025 34.45 31.925 34.475 31.875 34.525Z" fill="white"/>
</svg>
