<svg width="60" height="60" viewBox="0 0 60 60" fill="none" xmlns="http://www.w3.org/2000/svg">
<path d="M30.2998 33.8249H29.8748C24.1998 33.6499 19.9498 29.225 19.9498 23.775C19.9498 18.225 24.4748 13.7 30.0248 13.7C35.5748 13.7 40.0998 18.225 40.0998 23.775C40.105 26.3861 39.0921 28.8965 37.2763 30.773C35.4605 32.6495 32.9848 33.7443 30.3748 33.8249H30.2998ZM29.9998 17.425C26.4998 17.425 23.6748 20.275 23.6748 23.75C23.6673 25.3869 24.2972 26.9625 25.4311 28.143C26.565 29.3236 28.1139 30.0165 29.7498 30.0749C29.9406 30.0486 30.1341 30.0486 30.3248 30.0749C31.9443 29.9886 33.4691 29.2846 34.5852 28.108C35.7013 26.9314 36.3239 25.3717 36.3248 23.75C36.3248 20.275 33.4998 17.425 29.9998 17.425ZM29.9998 56.8749C23.2748 56.8749 16.8498 54.375 11.8748 49.825C11.6596 49.6269 11.4934 49.3815 11.3893 49.1081C11.2852 48.8348 11.246 48.541 11.2748 48.2499C11.5998 45.2749 13.4498 42.5 16.5248 40.45C23.9748 35.5 36.0498 35.5 43.4748 40.45C46.5498 42.525 48.3998 45.2749 48.7248 48.2499C48.7998 48.8499 48.5748 49.4249 48.1248 49.825C43.1803 54.3636 36.7116 56.8797 29.9998 56.8749ZM15.1998 47.75C19.348 51.2256 24.5881 53.1286 29.9998 53.125C35.4248 53.125 40.6498 51.2249 44.7998 47.75C44.3498 46.2249 43.1498 44.75 41.3748 43.5499C35.2248 39.4499 24.7998 39.4499 18.5998 43.5499C16.8248 44.75 15.6498 46.2249 15.1998 47.75Z" fill="white"/>
<path d="M30 56.875C15.175 56.875 3.125 44.825 3.125 30C3.125 15.175 15.175 3.125 30 3.125C44.825 3.125 56.875 15.175 56.875 30C56.875 44.825 44.825 56.875 30 56.875ZM30 6.875C17.25 6.875 6.875 17.25 6.875 30C6.875 42.75 17.25 53.125 30 53.125C42.75 53.125 53.125 42.75 53.125 30C53.125 17.25 42.75 6.875 30 6.875Z" fill="white"/>
</svg>
