<svg width="60" height="60" viewBox="0 0 60 60" fill="none" xmlns="http://www.w3.org/2000/svg">
<path d="M29.9996 56.575C28.3246 56.575 26.6246 56.2 25.2996 55.425L11.5496 47.5C5.94961 43.725 5.59961 43.15 5.59961 37.225V22.775C5.59961 16.85 5.92461 16.275 11.4246 12.55L25.2746 4.55C27.8996 3.025 32.0246 3.025 34.6496 4.55L48.4496 12.5C54.0496 16.275 54.3996 16.85 54.3996 22.775V37.2C54.3996 43.125 54.0746 43.7 48.5746 47.425L34.7246 55.425C33.3746 56.2 31.6746 56.575 29.9996 56.575ZM29.9996 7.175C28.9496 7.175 27.9246 7.375 27.1996 7.8L13.4496 15.75C9.37461 18.5 9.37461 18.5 9.37461 22.775V37.2C9.37461 41.475 9.37461 41.475 13.5496 44.3L27.1996 52.175C28.6746 53.025 31.3496 53.025 32.8246 52.175L46.5746 44.225C50.6246 41.475 50.6246 41.475 50.6246 37.2V22.775C50.6246 18.5 50.6246 18.5 46.4496 15.675L32.7996 7.8C32.0746 7.375 31.0496 7.175 29.9996 7.175Z" fill="white"/>
<path d="M30 39.375C24.825 39.375 20.625 35.175 20.625 30C20.625 24.825 24.825 20.625 30 20.625C35.175 20.625 39.375 24.825 39.375 30C39.375 35.175 35.175 39.375 30 39.375ZM30 24.375C26.9 24.375 24.375 26.9 24.375 30C24.375 33.1 26.9 35.625 30 35.625C33.1 35.625 35.625 33.1 35.625 30C35.625 26.9 33.1 24.375 30 24.375Z" fill="white"/>
</svg>
