<svg width="48" height="48" viewBox="0 0 48 48" fill="none" xmlns="http://www.w3.org/2000/svg">
<path d="M45.9997 30.742V35.122C45.9997 40.002 42.4397 44.602 37.5997 45.942C37.2597 46.022 36.8997 46.022 36.5797 45.942C34.2429 45.292 32.1754 43.9114 30.6797 42.002C29.0997 40.042 28.1797 37.622 28.1797 35.122V30.742C28.1797 29.902 28.7997 28.982 29.5597 28.662L35.1197 26.382C36.3797 25.882 37.7797 25.882 39.0397 26.382L41.0397 27.202L44.6197 28.662C45.3797 28.982 45.9997 29.902 45.9997 30.742Z" fill="#030001"/>
<path d="M41.8996 22.022L41.5396 24.162L40.1396 23.602C38.1596 22.802 35.9996 22.802 33.9796 23.602L28.3996 25.902C26.4996 26.702 25.1796 28.682 25.1796 30.742V35.122C25.1796 37.502 25.8396 39.882 27.0596 42.002H12.3596C9.61958 42.002 7.03958 39.822 6.57958 37.122L4.05958 22.022C3.73958 20.162 4.67958 17.662 6.15958 16.482L19.3196 5.96202C21.3396 4.34202 24.6196 4.34202 26.6396 5.98202L39.7996 16.482C41.2596 17.662 42.2196 20.162 41.8996 22.022Z" fill="#030001"/>
</svg>
